<!-- <?xml version="1.0" encoding="UTF-8" standalone="no"?> -->
<!-- Uploaded to: SVG Repo, www.svgrepo.com, Generator: SVG Repo Mixer Tools -->
<svg width="100px" fill="#6C5FBC" height="100px" viewBox="0 -9 64 64" version="1.1" xmlns="http://www.w3.org/2000/svg" xmlns:xlink="http://www.w3.org/1999/xlink" xmlns:sketch="http://www.bohemiancoding.com/sketch/ns">
<!--     
    <title>Folder-@</title>
    <desc>Created with Sketch.</desc>
    <defs>

</defs> -->
<g id="Page-1" stroke="none" stroke-width="1" fill="none" fill-rule="evenodd" sketch:type="MSPage">
<g id="Folder-@" sketch:type="MSLayerGroup" transform="translate(1.000000, 1.000000)" stroke="#676767" stroke-width="2">
<path d="M26.9,9 L17.7,0 L2.9,0 C1.3,0 0,1.3 0,2.9 L0,41 C0,42.6 1.3,43.9 2.9,43.9 L58.5,43.9 C61.7,43.9 62,42.5 62,40.9 L62,7.9 C62,6.2 61.7,4.9 58.5,4.9 L22.9,4.9" id="Shape" sketch:type="MSShapeGroup">
</path>
<path d="M36,27 C36,28 34,30 32,30 C29,30 28,27.6 28,26 C28,23 30.1,21 33.6,21 L36,21 L36,26 C35.6,28.5 36.5,29.5 37.6,29.4 C39.3,29.4 41.2,27 41,23.2 C40.7,18.4 37.6,15.6 32.4,15.9 C27,16.2 22.6,20.3 23,26.9 C23.3,32.4 27.1,35.2 32,34.9 C33.9,34.8 35.6,34.1 37,33.3" id="Shape" sketch:type="MSShapeGroup">
</path>
</g>
</g>
</svg>