<svg width="167" height="167" viewBox="0 0 167 167" fill="none" xmlns="http://www.w3.org/2000/svg">
<path d="M32.5541 95.566C48.9249 108.066 68.3193 116.347 89.539 112.624C108.692 109.264 121.366 95.604 109.568 76.9172C103.983 68.0713 91.4478 61.3162 81.0902 65.471C69.551 70.0998 77.6996 84.2167 84.6958 88.5913C101.036 98.8088 124.946 96.117 137.538 79.1664C152.45 59.0929 129.676 47.1295 129.651 47.2987" stroke="#6C5FBC" stroke-width="2.9437" stroke-miterlimit="1.5" stroke-linecap="round" stroke-linejoin="round"/>
<path d="M35.0116 118.38C35.7449 116.224 35.5063 114.001 35.382 111.771C34.9747 104.447 32.1951 96.6906 26.7401 91.5488C34.0953 94.9903 44.8045 96.9793 51.9038 92.2451" stroke="#6C5FBC" stroke-width="2.9437" stroke-miterlimit="1.5" stroke-linecap="round" stroke-linejoin="round"/>
</svg>
