<svg width="22" height="26" viewBox="0 0 22 26" fill="none" xmlns="http://www.w3.org/2000/svg">
    <g clip-path="url(#clip0_1_571)">
        <path d="M20.892 19.862C20.5216 20.708 20.0833 21.4867 19.5754 22.2027C18.883 23.1787 18.3162 23.8543 17.8793 24.2295C17.2021 24.8453 16.4766 25.1607 15.6996 25.1786C15.1418 25.1786 14.4691 25.0217 13.6861 24.7033C12.9005 24.3864 12.1786 24.2295 11.5184 24.2295C10.8261 24.2295 10.0836 24.3864 9.28942 24.7033C8.494 25.0217 7.85323 25.1876 7.36331 25.204C6.61824 25.2354 5.87558 24.9111 5.13428 24.2295C4.66115 23.8214 4.06935 23.1219 3.3604 22.1309C2.59975 21.0727 1.9744 19.8455 1.48448 18.4465C0.959799 16.9354 0.696777 15.472 0.696777 14.0554C0.696777 12.4326 1.0514 11.0329 1.76171 9.86003C2.31995 8.91792 3.06261 8.17475 3.9921 7.62919C4.9216 7.08362 5.92592 6.80561 7.00748 6.78782C7.59928 6.78782 8.37534 6.96883 9.33975 7.32457C10.3014 7.6815 10.9189 7.86251 11.1897 7.86251C11.3921 7.86251 12.078 7.65086 13.2409 7.22891C14.3406 6.83759 15.2688 6.67557 16.0291 6.73939C18.0894 6.90381 19.6373 7.70691 20.6668 9.15378C18.8241 10.2578 17.9126 11.804 17.9307 13.7877C17.9474 15.3327 18.5142 16.6185 19.6283 17.6394C20.1332 18.1132 20.697 18.4794 21.3243 18.7395C21.1883 19.1296 21.0447 19.5033 20.892 19.862ZM16.1667 1.47565C16.1667 2.68667 15.7192 3.8174 14.8274 4.86399C13.7511 6.10818 12.4493 6.82713 11.0376 6.71368C11.0196 6.5684 11.0092 6.41549 11.0092 6.25481C11.0092 5.09223 11.521 3.84804 12.43 2.83074C12.8837 2.31567 13.4609 1.88739 14.1608 1.54575C14.8591 1.2092 15.5197 1.02308 16.141 0.991211C16.1591 1.15311 16.1667 1.31501 16.1667 1.47563V1.47565Z" fill="#323142"/>
    </g>
    <defs>
        <clipPath id="clip0_1_571">
            <rect width="20.6275" height="24.2149" fill="white" transform="translate(0.696289 0.989746)"/>
        </clipPath>
    </defs>
</svg>
