<svg width="22" height="23" viewBox="0 0 22 23" fill="none" xmlns="http://www.w3.org/2000/svg">
<path d="M16.3082 6.87451C15.8101 5.96139 15.1253 5.26618 14.2537 4.78887C13.3821 4.31156 12.3652 4.0729 11.203 4.0729C9.91638 4.0729 8.77498 4.36344 7.77886 4.94451C6.78273 5.52559 6.00451 6.35569 5.44419 7.43483C4.88386 8.51396 4.6037 9.75912 4.6037 11.1703C4.6037 12.623 4.88386 13.8889 5.44419 14.968C6.02526 16.0472 6.82423 16.8773 7.84111 17.4583C8.85799 18.0394 10.0409 18.33 11.3898 18.33C13.05 18.33 14.4093 17.8942 15.4677 17.0225C16.5261 16.1302 17.2213 14.8954 17.5533 13.3182H10.0824V9.9874H21.8491V13.7851C21.5586 15.3001 20.936 16.7009 19.9814 17.9875C19.0268 19.2742 17.792 20.3118 16.2771 21.1004C14.7829 21.8683 13.1019 22.2522 11.2342 22.2522C9.13815 22.2522 7.23929 21.7853 5.53757 20.8514C3.85661 19.8968 2.52844 18.579 1.55307 16.898C0.598446 15.2171 0.121136 13.3078 0.121136 11.1703C0.121136 9.03278 0.598446 7.12354 1.55307 5.44257C2.52844 3.74086 3.85661 2.42307 5.53757 1.4892C7.23929 0.534579 9.12778 0.0572682 11.203 0.0572682C13.6518 0.0572682 15.779 0.659094 17.5845 1.86275C19.39 3.04565 20.6351 4.71623 21.3199 6.87451H16.3082Z" fill="#2B2B2B"/>
</svg>
