<svg width="22" height="21" viewBox="0 0 22 21" fill="none" xmlns="http://www.w3.org/2000/svg">
<path fill-rule="evenodd" clip-rule="evenodd" d="M21.8599 12.4813V20.3605H17.2203V12.9989C17.2203 11.1585 16.5824 9.89327 14.9005 9.89327C13.6246 9.89327 12.8707 10.756 12.5227 11.5611C12.4067 11.8487 12.3487 12.2513 12.3487 12.6538V20.3605H7.70916C7.70916 20.3605 7.76715 7.88035 7.70916 6.61509H12.3487V8.5705C12.3487 8.5705 12.3487 8.628 12.2908 8.628H12.3487V8.5705C12.9867 7.65031 14.0306 6.27002 16.5244 6.27002C19.5401 6.27002 21.8599 8.28294 21.8599 12.4813ZM2.95352 0.000976562C1.38766 0.000976562 0.34375 1.03619 0.34375 2.35897C0.34375 3.68174 1.32966 4.71697 2.89552 4.71697H2.95352C4.57738 4.71697 5.56329 3.68175 5.56329 2.35897C5.5053 1.03619 4.51938 0.000976562 2.95352 0.000976562ZM0.576919 20.3601H5.15853V6.61475H0.576919V20.3601Z" fill="#201F1F"/>
</svg>
