<svg viewBox="0 0 41 38" width="100%" height="100%" fill="none" xmlns="http://www.w3.org/2000/svg">
<rect x="3.25098" y="4.40625" width="37.4025" height="33.0393" rx="6.16733" fill="#6C5FBC"/>
<rect x="0.891536" y="0.891536" width="35.6194" height="31.2562" rx="5.2758" fill="#DBD9EE" stroke="#6C5FBC" stroke-width="1.78307"/>
<path d="M28.8682 10.6655L8.60258 10.5759" stroke="#6C5FBC" stroke-width="1.84442" stroke-linecap="round" stroke-linejoin="round"/>
<path d="M28.8446 14.7226L24.344 14.709C22.4824 14.7033 20.9793 12.8782 20.9893 10.6355C20.9993 8.39284 22.5186 6.57689 24.3802 6.58254L28.8809 6.59619" stroke="#6C5FBC" stroke-width="1.84442" stroke-linecap="round" stroke-linejoin="round"/>
<path d="M15.3583 23.6466L9.47517 23.5891C8.99312 23.5877 8.58987 23.1108 8.58151 22.5295L8.54451 20.9968C8.53627 20.389 8.94393 19.875 9.44789 19.8765L15.2653 19.9338L15.3583 23.6466Z" stroke="#6C5FBC" stroke-width="1.84442" stroke-linecap="round" stroke-linejoin="round"/>
<path d="M24.6072 25.8539L16.2891 25.7625C15.8068 25.7611 15.4035 25.2841 15.3951 24.7025L15.2958 19.9311L28.8086 20.0778L28.8168 20.6858C28.8807 23.5672 26.9853 25.8875 24.6072 25.8539Z" stroke="#6C5FBC" stroke-width="1.84442" stroke-linecap="round" stroke-linejoin="round"/>
</svg>
