<svg xmlns="http://www.w3.org/2000/svg" data-name="smth went wrong" viewBox="0 0 1000 1000"><path fill="#cecccd" d="M202.74559,754.5908l-88.399-156.3737a39.20065,39.20065,0,0,1,11.0892-51.0091L265.99029,445.1259a39.19923,39.19923,0,0,0,7.6945-7.3803l170.3934-215.1523a39.20068,39.20068,0,0,1,60.0012-1.7376L686.99148,426.1822a39.209,39.209,0,0,1,4.3224,5.8713L806.78318,624.044a39.20047,39.20047,0,0,1-2.3049,43.8205l-77.6732,93.904a39.20045,39.20045,0,0,1-32.3007,15.5709l-458.64619-2.8523A39.20035,39.20035,0,0,1,202.74559,754.5908Z"/><g data-name="left hand"><path fill="#fff" stroke="#231f20" stroke-linecap="round" stroke-miterlimit="10" stroke-width="3" d="M194.4663,739.2756s-7.0129.7307-10.4629-5.6893c-1.75-3.25-9.86-5.72-17.44-7.84l-6.57-1.85c-4.44-1.31-7.7-2.52-7.7-3.76,0-3.08,10.33-3.36,16.38-2.76l10.8698-3.8295,19.52019-19.4005s.84.64,2.03,1.61l3.73,3.26c3.01,2.85,5.4253,5.5688,2.8,6.51-6.53,2.3411-20.99779-10.575-13.45-15.04,4.15329-2.4569,9.06-1.94,13.83-.33l5.93,2.63c10.59,5.75,17.7634,22.7412,21.0034,25.3312v8.0642l-14.0662,12.6585-26.40429.4354s-7.0129.7307-10.4629-5.6893c-1.75-3.25-9.86-5.72-17.44-7.84l-6.57-1.85c-4.44-1.31-7.7-2.52-7.7-3.76,0-3.08,10.33-3.36,16.38-2.76"/><polygon fill="#fff" stroke="#231f20" stroke-linecap="round" stroke-linejoin="round" stroke-width="3" points="177.413 716.812 161.323 729.446 157.653 725.166 174.483 712.016 177.413 716.812"/><path fill="#fff" stroke="#231f20" stroke-linecap="round" stroke-linejoin="round" stroke-width="3" d="M186.6912,711.135c.5222.1114,4.6317,10.6472,1,13.8377-1.3586,1.1936-6.1982-2.3808-12.4431-11.9564-4.586-7.0319-.0854-9.0246,6.7411-8.1074Z"/><path fill="#fff" stroke="#231f20" stroke-linecap="round" stroke-linejoin="round" stroke-width="3" d="M194.4663,708.0574s5.41939,10.2452,1.0393,12.6922c-3.0792,1.7202-4.9136-1.4903-10.8144-8.6146-6.7104-8.1019-3.6622-12.1752,1.4936-11.9376Z"/><path fill="#fff" stroke="#231f20" stroke-linecap="round" stroke-miterlimit="10" stroke-width="3" d="M201.81329,705.4556s3.2465,5.0881,1.4121,7.4604-8.73769-2.4592-13.14649-5.9816c-10.4912-8.3819-1.5287-11.9831,2.0163-11.9831Z"/><path fill="#fff" stroke="#231f20" stroke-linecap="round" stroke-miterlimit="10" stroke-width="3" d="M234.93679,718.1175c-3.24-2.59-10.4134-19.5812-21.0034-25.3312l-5.93-2.63c-4.77-1.61-9.6767-2.1269-13.83.33-7.5478,4.465,6.92,17.3811,13.45,15.04,2.6253-.9412.21-3.66-2.8-6.51l-3.73-3.26c-1.19-.97-2.03-1.61-2.03-1.61"/><path fill="#231f20" stroke="#231f20" stroke-linecap="round" stroke-linejoin="round" stroke-width="3" d="M233.61339,679.3463l-.16.11c-1,.53-3.14-.79-5.34-3.4a1.54217,1.54217,0,0,1-.01-2.21h.01a5.06427,5.06427,0,0,1,5.5-.9C236.06339,674.3663,234.53339,678.5563,233.61339,679.3463Z"/><path fill="#fff" stroke="#231f20" stroke-linecap="round" stroke-miterlimit="10" stroke-width="3" d="M233.45339,679.4563l-19.52,13.33-9.11,6.23c-1.28-1.21-2.65-2.37-3.73-3.26l6.91-5.6,20.1-16.31a1.54217,1.54217,0,0,0,.01,2.21C230.31339,678.6663,232.45339,679.9863,233.45339,679.4563Z"/><path fill="#231f20" stroke="#231f20" stroke-linecap="round" stroke-linejoin="round" stroke-width="3" d="M189.0599,760.4856c-2.48,1.8299-5.65,0-5.65,0s1.98-6.65,4.77-5.28C188.1799,755.2056,191.5399,758.6456,189.0599,760.4856Z"/><path fill="#fff" stroke="#231f20" stroke-linecap="round" stroke-linejoin="round" stroke-width="3" d="M188.1799,755.2056c-2.79-1.37-4.77,5.28-4.77,5.28s-18.34-14.22-19.03-15.37c-.69-1.14,4.18-4.81,4.18-4.81Z"/><path fill="none" stroke="#231f20" stroke-linecap="round" stroke-linejoin="round" stroke-width="3" d="M161.3199,729.4456c-2.67-.84-8.63-3.52-7.03,0,1.61,3.52,5.96,3.29,5.96,3.29s-9.4.91-7.56,4.35c1.56,2.95,8.65.86,10.68.19.12-.04.22-.08.3-.1.16-.06.25-.09.25-.09l-.55.19c-1.99.71-8.61,3.17-7.25,3.95,1.61.91,12.44-.92,12.44-.92"/><path fill="#fff" stroke="#231f20" stroke-linecap="round" stroke-linejoin="round" stroke-width="3" d="M196.0673,765.342c2.93439.0274,4.98719,5.9266,1.0125,7.3741-2.837,1.0331-6.6902-1.5402-7.2761-4.0476a34.42607,34.42607,0,0,1-.2863-8.696C190.0096,763.126,193.4052,765.3171,196.0673,765.342Z"/><path fill="#fff" stroke="#231f20" stroke-linecap="round" stroke-linejoin="round" stroke-width="3" d="M254.25,792.2335c11.84129-.3432,20.21239-1.1067,25.73009-2.287l-.0004.0003c10.4996-1.382,14.125-.6942,17.3569,1.3696s17.6778.9171,15.3848-4.8154-19.9517-4.1668-24.0777-2.198l-.0215.014a6.89186,6.89186,0,0,0-2.0409-3.7777c-6.1855-6.8604-24.8939-1.1465-37.0966,2.0637s-28.6838.5669-33.2983-.4586c-4.12739-.9172-14.0543-5.8195-14.0543-5.8195,2.7845,3.8501,17.5694,14.7084,44.2311,15.8574"/></g><g data-name="left foot"><path fill="#231f20" stroke="#231f20" stroke-linecap="round" stroke-miterlimit="10" stroke-width="3" d="M336.154,652.602c-.92.1499-20.27,3.6299-22.04,24.3399-24.54,1.49-72.67,2.58-73.96-7.23-1.53-11.6199,34.9-28.89,34.9-28.89,18.06-1.11,45.38-3.8499,58.25-10.49A135.86928,135.86928,0,0,1,336.154,652.602Z"/><path fill="#fff" stroke="#231f20" stroke-miterlimit="10" stroke-width="3" d="M324.844,676.1319c-2.48.24-6.2.5301-10.73.81,1.77-20.71,21.12-24.19,22.04-24.3399C336.474,664.2919,334.234,675.2319,324.844,676.1319Z"/><path fill="none" stroke="#f45d4a" stroke-linecap="round" stroke-linejoin="round" stroke-width="3" d="M250.259,650.7581a24.30023,24.30023,0,0,1,16.49269,6.7261"/><path fill="none" stroke="#f45d4a" stroke-linecap="round" stroke-linejoin="round" stroke-width="3" d="M256.66249,646.1721c5.2568-2.5772,15.2867,2.4459,15.2867,2.4459"/></g><g data-name="right foot"><path fill="#231f20" stroke="#231f20" stroke-linecap="round" stroke-miterlimit="10" stroke-width="3" d="M618.724,414.782s-17.2-1.5801-19.03,8.82c-1.83,10.3899,1.08,17.1899,1.08,17.1899a155.41774,155.41774,0,0,1-14.48,10.51c-.67-8.72-9.87-20.1-15.57-30.4499-3.29-5.9901-3.59-12.3701-3.54-18.1201,16.54-20.56,13.73-53.7599,28.99-55.49C601.344,346.662,622.304,388.2019,618.724,414.782Z"/><path fill="none" stroke="#f45d4a" stroke-linecap="round" stroke-linejoin="round" stroke-width="3" d="M575.23579,373.153c0,8.1235,14.3694,12.2293,14.3694,12.2293"/><path fill="none" stroke="#f45d4a" stroke-linecap="round" stroke-linejoin="round" stroke-width="3" d="M572.811,382.7572c0,5.2871,9.60949,10.5742,9.60949,10.5742"/><path fill="#fff" stroke="#231f20" stroke-miterlimit="10" stroke-width="3" d="M618.724,414.782c-.7,5.2899-2.38,9.9799-5.35,13.63a91.52075,91.52075,0,0,1-12.6,12.3799s-2.91-6.8-1.08-17.1899C601.524,413.2019,618.724,414.782,618.724,414.782Z"/></g><g data-name="right hand"><path fill="#fff" stroke="#231f20" stroke-linecap="round" stroke-linejoin="round" stroke-width="3" d="M676.36218,750.7024c14.5245-1.7605,17.0425-10.2333,24.0847-8.4728s-9.66688,18.3364-22.8872,18.9259c-13.5764.6054-29.4706,3.3284-34.67168-5.5055,0,0-8.65812-30.6803-.69142-28.3502,14.1135,4.1278,36.3428-12.7614,41.7696-11.3856,2.9265.7419.3439,3.5095-3.9364,5.9554-2.5442,1.4538-7.9745,4.3121-11.5826,6.7235,0,0,6.7585-3.2186,17.4425-7.9146,4.5774-2.012,9.5606-4.363,11.3619-2.5616,2.1401,2.1401-3.1071,4.7668-6.9288,6.7541-2.4689,1.2838-18.5431,8.4605-18.5431,8.4605s7.46032-.5002,22.8998-6.6148c2.6891-1.065,10.5541-5.6456,12.61152-2.9809,2.75158,3.564-5.51952,6.0501-10.54782,8.726-2.7501,1.4635-19.30918,7.1372-19.30918,7.1372,4.32828,1.64,19.81468-3.7235,22.21368-4.6275,2.4676-.93,12.3821-5.7325,14.0637-4.3567,2.0997,1.718-.7292,4.4287-4.91738,7.6059-9.57292,7.2623-20.31692,13.5629-28.63562,14.39"/><path fill="#fff" stroke="#231f20" stroke-linecap="round" stroke-linejoin="round" stroke-width="3" d="M676.36218,750.7024c14.5245-1.7605,17.0425-10.2333,24.0847-8.4728s-9.66688,18.3364-22.8872,18.9259c-13.5764.6054-29.4706,3.3284-34.67168-5.5055"/></g><g data-name="upper leg"><path fill="#fff" stroke="#231f20" stroke-linecap="round" stroke-miterlimit="10" stroke-width="3" d="M515.93389,484.1568A56.85,56.85,0,0,0,509.094,504.602a59.42213,59.42213,0,0,0-6.47-9c-22.47-25.2301-32.1-36.2301-51.82-36.69-7.33-.1701-26.84,1.9699-51.59,6.8499,0,0-4.59-6.39,32.56-42.1599,37.14-35.7701,117.78-46.9101,131.39-37.8401,4.66,3.11,4.06,9.51,4.02,16.97-.05,5.75.25,12.13,3.54,18.1201,5.7,10.3499,14.9,21.7299,15.57,30.4499a9.38371,9.38371,0,0,1-2.5,7.6c-8.25,8.72-52.22,8.03-62.57,18.35"/><path fill="none" stroke="#f45d4a" stroke-linecap="round" stroke-linejoin="round" stroke-width="3" d="M548.33129,385.3823s-6.4204,38.8281-43.7197,48.6115-69.3261-11.0245-69.3261-11.0245"/></g><g data-name="down leg"><path fill="#fff" stroke="#231f20" stroke-linecap="round" stroke-miterlimit="10" stroke-width="3" d="M534.424,594.6519c-3.94,4.35-22.32,3.59-57.48.46-41.28-3.67-70.63,25.68-84.22,13.76a13.38137,13.38137,0,0,1-2.3-2.66c-9.61-14.5-2.13-51.47-2.13-51.47-4.43-.14-4.32-.38-8.12.02-8.71.91-18.8,15.13-26.14,19.72-7.33,4.58-10.08,3.66-21.55,10.09-11.46,6.42,4.13,21.0901,7.8,35.7701,1.01,4.0499-1.82,7.3299-6.98,9.9899-12.87,6.6401-40.19,9.38-58.25,10.49-.91.05-1.79.1-2.65.1501-24.76,1.38-20.17-15.13-17.88-21.5501s-4.59-39.9-3.21-58.24c1.37-18.35,10.481-51.3416,29.281-64.1816,38.22-26.1,76.769-22.9784,118.619-31.2384,24.75-4.88,44.26-7.02,51.59-6.8499,19.72.4599,29.35,11.4599,51.82,36.69a59.42213,59.42213,0,0,1,6.47,9c17.95,29.9499,26.09,87.2999,26.09,87.2999A3.13838,3.13838,0,0,1,534.424,594.6519Z"/><path fill="none" stroke="#f45d4a" stroke-linecap="round" stroke-linejoin="round" stroke-width="3" d="M374.14919,472.8092c4.0409,7.6084,19.4815,37.0062,54.6407,33.9489S485.13,480.7965,485.13,480.7965"/><path fill="none" stroke="#f45d4a" stroke-linecap="round" stroke-linejoin="round" stroke-width="3" d="M515.93639,594.6519s-.31839-31.9447-25.6942-27.6645-24.7657,24.9172-24.7657,24.9172"/><path fill="none" stroke="#f45d4a" stroke-linecap="round" stroke-linejoin="round" stroke-width="3" d="M377.88549,552.4651c-12.5542-10.2793-20.02549-11.4649-29.5032-7.1847s-19.5526,18.626-14.2625,35.3419"/><path fill="none" stroke="#f45d4a" stroke-linecap="round" stroke-linejoin="round" stroke-width="3" d="M315.12189,521.3959c-4.0392,16.2227-9.1048,33.4182-19.01989,45.2284-21.09551,25.1275-41.16931,16.8413-41.16931,16.8413"/><path fill="none" stroke="#f45d4a" stroke-linecap="round" stroke-linejoin="round" stroke-width="3" d="M330.353,479.3442c-6.667,6.0173-9.96791,20.3782-13.86861,36.4874"/><path fill="none" stroke="#231f20" stroke-linecap="round" stroke-miterlimit="10" stroke-width="3" d="M389.98309,554.7839c5.73.19,14.37091.068,19.54091-2.782,9.18-5.04,20.64-10.08,22.93-11,2.3-.92,5.97,19.72,10.55,21.09"/></g><path fill="#f45d4a" d="M633.324,767.3819c-11.92-3.06-37.50482-3.3107-46.98481-.2608-9.47,3.06-43.4627,1.5301-51.1027,0-7.65-1.53-32.4298,2.3773-44.5307,2.3773-16.056,0-34.4694-5.9965-43.6395-4.7764-9.1699,1.2199-30.26229-3.0401-39.98229-1.31a12.03421,12.03421,0,0,1-2.745.1295c1.5-1.19,1.495-3.3696,1.445-7.3996-.08-6.1099,1.15-12.96-5.43-12.8599-6.57.0999-8.79.4099-10.7-1.2001a4.93867,4.93867,0,0,0-1.13-.68,34.4272,34.4272,0,0,0-12.86-2.5499c-4.35.1699-13.14,3.7699-18.42,6.4399-5.27,2.6801-8.4,2.75-10.08,3.98-1.53,1.11-3.29,7.79-1.61,10.3901.05.0699.09.1399.15.2099a30.49643,30.49643,0,0,0-4.05.17c-8.56,1.23-43.41,4.28-49.22,1.84-5.81-2.45-14.68-4.2799-20.48-.61-5.81,3.66-33.33,3.66-47.39-4.59-14.07-8.26-26.6-7.95-33.02-12.16s26.6-17.7999,33.02-19.33c6.42-1.5299,13.45-14.98,19.09-18.65s10.85349.0238,9.03,3.36a4.2904,4.2904,0,0,1-1.60751,1.7078,1.82978,1.82978,0,0,0,.2644,3.2723c8.16,3.177,27.99711,1.8921,41.70311,2.78,15.9,1.0299,17.12,4.7799,33.94,5.0799,16.81.31,23.54,1.2301,42.8-7.03,17.33-7.42,28.36.7001,34.62,5.69a69.18016,69.18016,0,0,1,7.26-4.77c7.65-4.2799,4.9-23.5399,1.84-27.52-3.06-3.97,11.01-11,12.53-17.18,1.53-6.18-13.14-13.7-20.17-19.81-7.04-6.12-3.37-10.0899-2.45-19.57s-6.42-13.4499-10.69-17.12-8.27-8.56-2.3-11.22a13.38137,13.38137,0,0,0,2.3,2.66c13.59,11.92,42.94-17.43,84.22-13.76,35.16,3.13,53.54,3.89,57.48-.46,7.8,9.34,22.16,28.28,20.02,38.68-2.14,10.3901-20.79,31.49-21.71,41.5801-.91,10.0899,9.72,20.4799-4.46,36.0799-11.57,12.72-14.72,18.32-15.49,19.95,1.04239,1.0702,5.41059-2.6889,11.32689-4.0709,9.8715-2.3059,19.3957-1.4464,26.1402-1.2841,5.6038.1349,17.557-.8233,23.3885-1.1001,12.84-.6101,16.79741,3.4796,27.49749,3.6096,10.70992.13,22.79492-2.0439,29.52492-3.5738,6.72-1.5301,14.582-1.4107,17.032,3.1693,2.45,4.5901-3.06,24.57,0,28.85S645.244,770.4419,633.324,767.3819Z"/><path fill="none" stroke="#231f20" stroke-linecap="round" stroke-miterlimit="10" stroke-width="3" d="M512.56059,686.669c4.8917-7.3376,12.9663-18.4766,19.3867-14.1963"/><path fill="none" stroke="#231f20" stroke-linecap="round" stroke-miterlimit="10" stroke-width="3" d="M392.824,743.2819c-5.48-6.64,2.09589-14.7784,10.16589-20.7984"/><path fill="none" stroke="#231f20" stroke-linecap="round" stroke-miterlimit="10" stroke-width="3" d="M457.24439,616.6637a21.68722,21.68722,0,0,1,8.2334,4.5785"/><path fill="none" stroke="#231f20" stroke-linecap="round" stroke-miterlimit="10" stroke-width="3" d="M404.94279,629.6498c3.6293-3.6293,8.2548-9.3248,14.67521-12.9936,4.23419-2.4196,18.57459-3.7753,30.65579-1.6994"/><path fill="none" stroke="#231f20" stroke-linecap="round" stroke-miterlimit="10" stroke-width="3" d="M431.77969,679.0955c2.0855.4429,2.4846-1.1327,5.5707-1.9043,4.8918-1.2229,8.8663-1.648,16.2039,1.0104s19.8726-.7256,21.0955-1.6323"/><path fill="none" stroke="#231f20" stroke-linecap="round" stroke-miterlimit="10" stroke-width="3" d="M470.984,726.1119c6.11,2.14,11.56-3.98,20.46-4.9,7.32-.75,8.522,5.4012,19.662,7.3812"/><path fill="none" stroke="#231f20" stroke-linecap="round" stroke-linejoin="round" stroke-width="3" d="M430.69989,736.0989c3.7834,19.4791-12.687,24.0095-12.687,24.0095"/><path fill="none" stroke="#231f20" stroke-linecap="round" stroke-linejoin="round" stroke-width="3" d="M397.77349,743.2819c4.66051-11.6712,16.5706-13.2754,20.2394-12.3582"/><path fill="none" stroke="#231f20" stroke-linecap="round" stroke-miterlimit="10" stroke-width="3" d="M234.654,727.0219c-.25-2.91,5.45309-8.9641,14.35029-13.2715"/><path fill="none" stroke="#231f20" stroke-linecap="round" stroke-miterlimit="10" stroke-width="3" d="M633.90108,724.871c-.6114,2.8745-3.4955,23.3882,1.0905,25.3185"/><g><path fill="#fff" stroke="#231f20" stroke-linecap="round" stroke-linejoin="round" stroke-width="3" d="M403.594,763.532c1.5-1.19,2.24-3.3601,2.19-7.3901-.07-5.3599.87-11.2999-3.35-12.6,4.13-2.53,14.89-7.73,17.87-2.15S415.134,760.9319,403.594,763.532Z"/><path fill="#fff" stroke="#231f20" stroke-linecap="round" stroke-linejoin="round" stroke-width="3" d="M405.784,756.1419c.05,4.03-2.066,8.7105-7.09981,12.0253-5.4443,3.585-24.1529,2.8217-34.0128,1.3312-.7925-.1198-8.8662-2.1082-12.07639-3.0484s-5.061-4.1381-6.891-6.5781c-.06-.07-.1-.14-.15-.2099-1.68-2.6001.08-9.2801,1.61-10.3901,1.68-1.23,4.81-1.2999,10.08-3.98,5.28-2.67,14.07-6.27,18.42-6.4399a34.4272,34.4272,0,0,1,12.86,2.5499,4.93867,4.93867,0,0,1,1.13.68c1.91,1.61,4.13,1.3,10.7,1.2001a6.76573,6.76573,0,0,1,2.07.2599h.01C406.654,744.842,405.714,750.782,405.784,756.1419Z"/><path fill="#231f20" stroke="#231f20" stroke-linecap="round" stroke-linejoin="round" stroke-width="3" d="M388.524,741.4019a34.4272,34.4272,0,0,0-12.86-2.5499c-4.35.1699-13.14,3.7699-18.42,6.4399-5.27,2.6801-8.4,2.75-10.08,3.98-1.53,1.11-3.29,7.79-1.61,10.3901,1.68,2.5999,6.57819,6.4438,9.02819,7.2838-1.0894,1.5714-31.22819-.4439-39.98819.7762-8.22,1.1499-22.12.4599-24.76-6.7601s26.83739.3441,32.1-1.03c5.02089-1.311,12.60279-7.6777,12.61-10.32.01279-4.6626,6.54-7.4499,12.39-9.86,5.84-2.4099,5.16-5.5,9.4-7.57,4.24-2.06,5.96,2.07,17.08,2.65S388.524,741.4019,388.524,741.4019Z"/><line x1="399.034" x2="390.96" y1="675.91" y2="695.612" fill="none" stroke="#231f20" stroke-linecap="round" stroke-linejoin="round" stroke-width="3"/><line x1="340.527" x2="349.215" y1="690.529" y2="703.655" fill="none" stroke="#231f20" stroke-linecap="round" stroke-linejoin="round" stroke-width="3"/></g><g><path fill="#231f20" stroke="#231f20" stroke-linecap="round" stroke-linejoin="round" stroke-width="3" d="M677.724,569.412c-3.72,4.2599-7.88,7.3799-10.23,6.44-3.44-1.3701-.76-7.9601-.76-7.9601C670.714,566.8919,674.004,568.092,677.724,569.412Z"/><path fill="#fff" stroke="#231f20" stroke-linecap="round" stroke-linejoin="round" stroke-width="3" d="M686.794,553.0119a56.02158,56.02158,0,0,1-4.4,10,47.29628,47.29628,0,0,1-4.67,6.4001c-3.72-1.32-7.01-2.5201-10.99-1.5201-3.53.8901-7.61,3.51-13,9.34-11.47,12.38-4.98,13.42-11.47,20.44-5.5,5.96-15.48-.15-9.9-8.52,2.74-4.1199,4.93-7.5499,8.54-10.33-16.28,10.37-15.04,28.44-13.96,37.85,1.18,10.32-7.15,16.28-10.59,16.97-3.44.68-8.94-1.15-12.38-7.7999-3.44-6.6501-6.65-22.24,8.94-44.9401,2.92-4.2399,8.6-9.04,14.64-13.39,0,0-7.3-.37-9.59-5.19-2.3-4.81,8.02-7.7899,16.28-7.7899,8.25,0,12.84-7.5701,29.58-8.4901a38.454,38.454,0,0,1,13.61,1.47C684.084,549.5819,686.794,553.0119,686.794,553.0119Z"/><path fill="none" stroke="#231f20" stroke-linecap="round" stroke-linejoin="round" stroke-width="3" d="M646.164,576.0219a37.2231,37.2231,0,0,0-5.23,2.78c-.01.01-.02.02-.03.02"/><path fill="none" stroke="#231f20" stroke-linecap="round" stroke-linejoin="round" stroke-width="3" d="M627.554,567.5119c8.7-6.25,18.15-11.53,21.13-12.75"/><path fill="#fff" stroke="#231f20" stroke-linecap="round" stroke-linejoin="round" stroke-width="3" d="M702.61218,589.592c-16.0113-6.0864-34.35818-13.4325-35.09818-13.7301,2.35.91,6.5-2.1999,10.21-6.4499a47.29628,47.29628,0,0,0,4.67-6.4001,56.02158,56.02158,0,0,0,4.4-10c1.98-5.77,3.18-11.37,2.49-12.2299.14.0899,1.28.8999,3.15,2.1999l23.83,51.67c-1.97382-.7032-4.15582-1.5001-6.47-2.3592"/><path fill="#fff" stroke="#231f20" stroke-linecap="round" stroke-linejoin="round" stroke-width="3" d="M726.194,597.6719c-.57.07-2.81-.5699-6.1-1.68l-18.71-46.72c13.91,9.8201,34.97,24.88,36.04,26.75C739.034,578.8319,729.404,597.2519,726.194,597.6719Z"/><polygon fill="#fff" stroke="#231f20" stroke-linecap="round" stroke-linejoin="round" stroke-width="3" points="647.801 533.407 644.21 542.281 635.905 537.123 638.871 529.793 647.801 533.407"/><polygon fill="#fff" stroke="#231f20" stroke-linecap="round" stroke-linejoin="round" stroke-width="3" points="656.423 531.7 653.727 538.363 644.21 542.281 647.801 533.407 656.423 531.7"/><polygon fill="#fff" stroke="#231f20" stroke-linecap="round" stroke-linejoin="round" stroke-width="3" points="656.423 531.7 647.801 533.407 638.871 529.793 645.661 525.856 656.423 531.7"/><polygon fill="#fff" stroke="#231f20" stroke-linecap="round" stroke-linejoin="round" stroke-width="3" points="682.78 685.199 677.434 690.812 682.78 694.867 688.417 693.307 682.78 685.199"/><polygon fill="#fff" stroke="#231f20" stroke-linecap="round" stroke-linejoin="round" stroke-width="3" points="688.417 680.209 693.383 685.199 688.417 693.307 682.78 685.199 688.417 680.209"/><path fill="#fff" stroke="#231f20" stroke-linecap="round" stroke-linejoin="round" stroke-width="3" d="M629.88748,664.2571c-3.4673-7.4815,7.75-13.08,8.22-13.49C640.29748,659.357,632.44438,669.774,629.88748,664.2571Z"/><path fill="#fff" stroke="#231f20" stroke-linecap="round" stroke-linejoin="round" stroke-width="3" d="M638.11748,650.7571l-.01.01a16.56824,16.56824,0,0,0-1.27-3.46"/><path fill="#f45d4a" stroke="#f45d4a" stroke-linecap="round" stroke-linejoin="round" stroke-width="3" d="M720.094,595.9919c-1.16-.3899-2.44-.84-3.83-1.34l-25.232-50.2887c2.17,1.52,8.75208,6.8526,12.38208,9.4126Z"/><path fill="#231f20" stroke="#231f20" stroke-linecap="round" stroke-linejoin="round" stroke-width="3" d="M686.794,553.0119s-2.71-3.43-9.36-5.5c6.28-6.01,10.76-8.0399,11.84-6.74a.00986.00986,0,0,0,.01.0101C689.974,541.6419,688.774,547.2419,686.794,553.0119Z"/><line x1="711.414" x2="723.246" y1="592.892" y2="597.007" fill="none" stroke="#231f20" stroke-linecap="round" stroke-linejoin="round" stroke-width="3"/><line x1="689.274" x2="708.155" y1="540.772" y2="554.068" fill="none" stroke="#231f20" stroke-linecap="round" stroke-linejoin="round" stroke-width="3"/><path fill="none" stroke="#231f20" stroke-linecap="round" stroke-linejoin="round" stroke-width="3" d="M593.15619,584.5911c-10.9606,5.2807-12.2273,15.0961-10.7357,19.2235"/><path fill="none" stroke="#231f20" stroke-linecap="round" stroke-linejoin="round" stroke-width="3" d="M668.44718,592.8917s4.8917,3.7382,1.8344,7.7127"/><path fill="none" stroke="#231f20" stroke-linecap="round" stroke-linejoin="round" stroke-width="3" d="M607.44108,617.7288s1.1747,10.0834,11.4932,7.5611"/><line x1="724.551" x2="732.838" y1="572.007" y2="577.422" fill="none" stroke="#231f20" stroke-linecap="round" stroke-linejoin="round" stroke-width="3"/><path fill="none" stroke="#231f20" stroke-linecap="round" stroke-linejoin="round" stroke-width="3" d="M667.514,560.1371a13.464,13.464,0,0,1,14.88,2.8748"/></g><g><path fill="#f45d4a" d="M902.97668,756.2637c-4.6983,1.7501-14.7768-.409-21.7275-4.01s-7.6225-9.2625-9.4404-14.9585c-.1854-.5773-.4009-1.2827-.6433-2.0763-1.2233-3.987-3.04948-10.3043-4.7031-15.8224-1.3535-4.4985-2.5952-8.4641-3.2811-10.186-1.1301-2.7906-3.1674-6.9249-8.0568-8.3996l-.0513-.0161-1.7644-.374-.0307-.0077a20.01757,20.01757,0,0,0-8.2042.7796c-8.1874,2.2828-15.0374,13.1076-20.2165,22.7189l-.01838.0215c-2.78672,5.1721-5.099,9.9962-6.88472,12.9539a15.01081,15.01081,0,0,1-7.7185,6.4991c-4.58,1.8513-10.1953,2.2587-16.5194,4.1255-10.5688,3.1304-23.6285.1658-20.2163,3.2802,5.2046,4.7501,4.6606,3.6892,19.9428,8.0152,15.29212,4.3253,26.6448-1.7884,35.5947-6.8045,7.0015-3.924,14.6223-15.8443,17.8765-21.339a1.54137,1.54137,0,0,1,2.7684.2418c3.1299,8.2075,8.9489,22.1157,15.01352,27.6168,8.92118,8.0922,18.65578,5.9159,20.96738,5.7358C903.49128,762.869,907.665,754.5143,902.97668,756.2637Z"/><path fill="#f45d4a" d="M824.839,723.9331c-2.78672,5.1721-5.099,9.9962-6.88472,12.9539-2.0421,3.3988-16.8672-.9829-21.8785-6.3399-5.0219-5.3661-19.574-.3206-15.4344-3.1908,4.1488-2.8809,19.5905-2.4289,28.2723-.2968C817.38,729.1281,824.426,724.2963,824.839,723.9331Z"/><path fill="#f45d4a" d="M899.31408,738.7288c-3.417,2.2901-10.98308,4.0445-15.8243,3.5328-5.4744-.5786-11.3306-3.6997-11.3306-3.6997-1.2233-3.9871-4.04318-13.6473-5.6968-19.1654,0,0,9.7017,9.2885,19.6439,13.4615,4.6218,1.9399,13.7945-.1512,16.6862-1.53C905.67408,729.95,903.16788,736.1461,899.31408,738.7288Z"/><path fill="#f45d4a" d="M853.29908,687.5376s-2.0225,14.0796-.9809,14.1891l.0307.0076a12.10419,12.10419,0,0,1,1.7644.374l.0514.0161,5.15-12.6757Z"/><path fill="#231f20" d="M842.84758,731.7248a1.9236,1.9236,0,1,1-3.83558.2989,1.9236,1.9236,0,1,1,3.83558-.2989Z"/><path fill="#231f20" d="M847.19038,721.7605a2.14732,2.14732,0,0,1-1.9633,2.3293,2.17422,2.17422,0,0,1-2.3318-1.9947,2.14753,2.14753,0,0,1,1.9972-2.3004A2.12063,2.12063,0,0,1,847.19038,721.7605Z"/><path fill="#231f20" d="M848.01988,707.3425a2.10174,2.10174,0,1,1-2.2726-1.9443A2.10045,2.10045,0,0,1,848.01988,707.3425Z"/><path fill="#231f20" d="M850.15688,716.629a1.4012,1.4012,0,0,1-1.30888,1.5305,1.44009,1.44009,0,0,1-1.53-1.3093,1.48322,1.48322,0,0,1,1.30878-1.53A1.43982,1.43982,0,0,1,850.15688,716.629Z"/><path fill="#231f20" d="M855.43868,703.9856a1.46593,1.46593,0,1,1-1.5778-1.3838A1.47,1.47,0,0,1,855.43868,703.9856Z"/><path fill="#231f20" d="M859.26958,709.5133a1.7565,1.7565,0,1,1-1.9079-1.6318A1.77334,1.77334,0,0,1,859.26958,709.5133Z"/><path fill="#231f20" d="M866.258,727.3267a1.45506,1.45506,0,0,1-1.33352,1.5589,1.45231,1.45231,0,1,1-.2253-2.8924A1.45493,1.45493,0,0,1,866.258,727.3267Z"/><path fill="#231f20" d="M840.54488,709.1361a1.36857,1.36857,0,0,1-1.2543,1.4662,1.366,1.366,0,1,1-.2119-2.7204A1.36855,1.36855,0,0,1,840.54488,709.1361Z"/><path fill="#231f20" d="M860.47788,737.3233a1.59531,1.59531,0,0,1-1.4621,1.7091,1.59225,1.59225,0,1,1-.247-3.1711A1.59522,1.59522,0,0,1,860.47788,737.3233Z"/><path fill="#231f20" d="M863.68928,719.2446a2.10513,2.10513,0,0,1-1.7996,2.1038,1.96183,1.96183,0,0,1-2.105-1.7996,1.85053,1.85053,0,0,1,1.8008-2.105A1.96258,1.96258,0,0,1,863.68928,719.2446Z"/><path fill="#231f20" d="M871.10178,755.0094a1.75532,1.75532,0,1,1-1.8723-1.6301A1.75924,1.75924,0,0,1,871.10178,755.0094Z"/></g><g><polyline fill="none" stroke="#231f20" stroke-linecap="round" stroke-linejoin="round" stroke-width="3" points="911.905 605.216 903.949 646.047 894.723 644.92 896.421 589.16 914.601 591.381 913.252 598.303"/><polygon fill="none" stroke="#231f20" stroke-linecap="round" stroke-linejoin="round" stroke-width="3" points="891.69 661.521 903.686 662.987 903.679 673.983 889.829 674.043 891.69 661.521"/></g></svg>