<svg width="23" height="25" viewBox="0 0 23 25" fill="none" xmlns="http://www.w3.org/2000/svg">
<path d="M13.8991 20.2749C15.3203 21.143 16.5701 20.0909 16.2983 18.2496L16.2664 18.0336C15.9772 16.0742 16.5667 14.087 17.8776 12.6023C19.0274 11.3002 18.5524 9.59402 16.9612 9.32538C15.1812 9.02487 13.6772 7.83775 12.9714 6.17625L12.8328 5.85004C12.1207 4.1735 10.5744 4.15547 9.86089 5.83516L9.716 6.17625C9.01023 7.83774 7.5062 9.02487 5.72621 9.32538C4.13727 9.59364 3.65839 11.2984 4.80978 12.6023C6.12071 14.087 6.71023 16.0742 6.42098 18.0336L6.38909 18.2496C6.11767 20.0883 7.36513 21.1442 8.78832 20.2749C10.3571 19.3166 12.3302 19.3166 13.8991 20.2749Z" fill="#6C5FBC"/>
<mask id="mask0_6429_901" style="mask-type:luminance" maskUnits="userSpaceOnUse" x="4" y="4" width="15" height="17">
<path d="M13.8991 20.2749C15.3203 21.143 16.5701 20.0909 16.2983 18.2496L16.2664 18.0336C15.9772 16.0742 16.5667 14.087 17.8776 12.6023C19.0274 11.3002 18.5524 9.59402 16.9612 9.32538C15.1812 9.02487 13.6772 7.83775 12.9714 6.17625L12.8328 5.85004C12.1207 4.1735 10.5744 4.15547 9.86089 5.83516L9.716 6.17625C9.01023 7.83774 7.5062 9.02487 5.72621 9.32538C4.13727 9.59364 3.65839 11.2984 4.80978 12.6023C6.12071 14.087 6.71023 16.0742 6.42098 18.0336L6.38909 18.2496C6.11767 20.0883 7.36513 21.1442 8.78832 20.2749C10.3571 19.3166 12.3302 19.3166 13.8991 20.2749Z" fill="white"/>
</mask>
<g mask="url(#mask0_6429_901)">
</g>
</svg>
