<svg width="16" height="16" viewBox="0 0 16 16" fill="none" xmlns="http://www.w3.org/2000/svg">
<path fill-rule="evenodd" clip-rule="evenodd" d="M8.1442 0.0179977C9.15366 0.0540529 10.1992 0.0540529 11.2086 0.0901033C12.1099 0.126154 12.9391 0.270363 13.7323 0.739038C14.7418 1.35192 15.3547 2.25323 15.571 3.40689C15.6791 4.09188 15.7152 4.81291 15.7512 5.49791C15.7873 7.01209 15.7512 8.52628 15.7512 10.0405C15.7512 10.8336 15.7152 11.6267 15.4628 12.3838C14.9581 13.862 13.9126 14.7633 12.3984 15.0517C11.7134 15.1959 10.9923 15.1959 10.3073 15.232C8.79314 15.268 7.315 15.232 5.8008 15.232C5.00766 15.232 4.21451 15.1959 3.45741 14.9435C1.97927 14.4388 1.07796 13.3933 0.789545 11.8791C0.645339 11.1941 0.645339 10.4731 0.609286 9.78809C0.573232 8.27391 0.609286 6.75973 0.609286 5.24554C0.609286 4.4524 0.645339 3.65926 0.897703 2.90216C1.40244 1.42402 2.44795 0.52273 3.96214 0.234312C4.64714 0.090108 5.36818 0.090108 6.05317 0.0540529C6.73817 0.0179977 7.42315 0.0179977 8.1442 0.0179977ZM14.3806 7.47995C14.3445 7.47995 14.3806 7.47995 14.3806 7.47995C14.3445 6.86702 14.3445 6.29015 14.3445 5.67722C14.3445 5.10036 14.3085 4.52348 14.2364 3.94661C14.0921 2.64865 13.335 1.78335 12.0731 1.53097C11.4241 1.38675 10.703 1.38675 10.054 1.38675C8.75605 1.3507 7.49414 1.3507 6.19618 1.38675C5.54719 1.38675 4.89821 1.4228 4.28528 1.53097C3.20364 1.71124 2.4465 2.32416 2.12201 3.4058C2.01384 3.76634 1.97779 4.12688 1.94173 4.48743C1.90568 5.8575 1.90568 7.22756 1.90568 8.59763C1.90568 9.46293 1.94173 10.3643 2.01384 11.2296C2.12201 12.5276 2.91521 13.4289 4.21318 13.6452C4.86215 13.7534 5.54719 13.7895 6.23223 13.7895C7.49414 13.8255 8.75605 13.7895 10.054 13.7895C10.6309 13.7895 11.2078 13.7534 11.7846 13.6813C12.3255 13.6452 12.8302 13.465 13.2629 13.1044C13.984 12.5276 14.2364 11.7704 14.2724 10.9051C14.3445 9.82348 14.3445 8.66974 14.3806 7.47995Z" fill="#081420"/>
<path fill-rule="evenodd" clip-rule="evenodd" d="M12.0407 7.62623C12.0407 9.78948 10.3101 11.5201 8.14683 11.5201C5.98355 11.5201 4.25293 9.78948 4.25293 7.59018C4.25293 5.46297 6.0196 3.73238 8.18288 3.73238C10.3101 3.73238 12.0407 5.46297 12.0407 7.62623ZM8.14548 10.1502C9.51555 10.1502 10.6693 8.99645 10.6693 7.6264C10.6693 6.25634 9.51555 5.1026 8.14548 5.1026C6.73935 5.1026 5.62165 6.25634 5.62165 7.6264C5.5856 8.99645 6.73935 10.1502 8.14548 10.1502Z" fill="#081420"/>
<path d="M13.0821 3.54932C13.0821 4.0538 12.6857 4.48621 12.1813 4.48621C11.6768 4.48621 11.2444 4.0538 11.2804 3.54932C11.2804 3.04485 11.6768 2.64847 12.1813 2.64847C12.6857 2.64847 13.0821 3.04484 13.0821 3.54932Z" fill="#081420"/>
</svg>
